<svg width="61" height="61" viewBox="0 0 61 61" fill="none" xmlns="http://www.w3.org/2000/svg">
<g filter="url(#filter0_d_820_165)">
<path fill-rule="evenodd" clip-rule="evenodd" d="M30.1133 7.7998C30.7473 7.7998 31.3554 8.05167 31.8037 8.5C32.252 8.94833 32.5039 9.5564 32.5039 10.1904V30.9092C32.5039 31.5432 32.252 32.1513 31.8037 32.5996C31.3554 33.0479 30.7473 33.2998 30.1133 33.2998C29.4793 33.2998 28.8712 33.0479 28.4229 32.5996C27.9745 32.1513 27.7227 31.5432 27.7227 30.9092V10.1904C27.7227 9.5564 27.9745 8.94833 28.4229 8.5C28.8712 8.05167 29.4793 7.7998 30.1133 7.7998ZM17.7139 14.3342C18.1616 14.7824 18.4131 15.39 18.4131 16.0236C18.4131 16.6571 18.1616 17.2647 17.7139 17.7129C15.263 20.165 13.5941 23.2888 12.9183 26.6893C12.2425 30.0898 12.5902 33.6144 13.9173 36.8173C15.2445 40.0202 17.4915 42.7578 20.3743 44.6838C23.2571 46.6098 26.6463 47.6377 30.1133 47.6377C33.5803 47.6377 36.9695 46.6098 39.8523 44.6838C42.7351 42.7578 44.9821 40.0202 46.3093 36.8173C47.6364 33.6144 47.9841 30.0898 47.3083 26.6893C46.6325 23.2888 44.9636 20.165 42.5127 17.7129C42.0904 17.2597 41.8605 16.6603 41.8714 16.041C41.8823 15.4217 42.1332 14.8308 42.5712 14.3928C43.0093 13.9548 43.6002 13.7039 44.2195 13.6929C44.8388 13.682 45.4382 13.9119 45.8914 14.3342C49.0116 17.4547 51.1365 21.4304 51.9972 25.7586C52.858 30.0867 52.416 34.5729 50.7271 38.6498C49.0383 42.7268 46.1784 46.2114 42.5092 48.663C38.84 51.1146 34.5262 52.4232 30.1133 52.4232C25.7004 52.4232 21.3866 51.1146 17.7174 48.663C14.0481 46.2114 11.1883 42.7268 9.49945 38.6498C7.8106 34.5729 7.3686 30.0867 8.22935 25.7586C9.0901 21.4304 11.2149 17.4547 14.3352 14.3342C14.7834 13.8865 15.391 13.635 16.0245 13.635C16.6581 13.635 17.2657 13.8865 17.7139 14.3342Z" fill="white"/>
</g>
<defs>
<filter id="filter0_d_820_165" x="-3.18672" y="-3.1877" width="66.6" height="66.6" filterUnits="userSpaceOnUse" color-interpolation-filters="sRGB">
<feFlood flood-opacity="0" result="BackgroundImageFix"/>
<feColorMatrix in="SourceAlpha" type="matrix" values="0 0 0 0 0 0 0 0 0 0 0 0 0 0 0 0 0 0 127 0" result="hardAlpha"/>
<feOffset/>
<feGaussianBlur stdDeviation="3.9"/>
<feComposite in2="hardAlpha" operator="out"/>
<feColorMatrix type="matrix" values="0 0 0 0 1 0 0 0 0 1 0 0 0 0 1 0 0 0 0.25 0"/>
<feBlend mode="normal" in2="BackgroundImageFix" result="effect1_dropShadow_820_165"/>
<feBlend mode="normal" in="SourceGraphic" in2="effect1_dropShadow_820_165" result="shape"/>
</filter>
</defs>
</svg>
