<svg width="27" height="30" viewBox="0 0 27 30" fill="none" xmlns="http://www.w3.org/2000/svg">
<path fill-rule="evenodd" clip-rule="evenodd" d="M8.73729 21.2458L8.14467 29.2257C8.10258 29.7869 8.59745 30.1722 9.03937 29.9224C12.1708 28.1539 21.9792 21.6591 26.951 7.38425C27.1791 6.7293 26.5661 6.13867 26.0434 6.50824C23.1068 8.58192 16.6891 12.8662 12.7227 13.6833C12.7227 13.6833 15.2629 11.9039 16.7828 9.1746C16.8557 9.04349 16.8916 8.8947 16.8864 8.74445C16.8813 8.59421 16.8353 8.44827 16.7536 8.32254L11.2096 0.265976C10.881 -0.21104 10.2063 -0.0132527 10.0882 0.595165L8.36189 9.44904L0.260734 16.5776C-0.145206 16.9348 -0.062389 17.6569 0.406683 17.8478L8.73729 21.2458ZM23.0633 18.1003C22.5501 18.8224 21.445 20.3068 20.4247 21.2143C20.2211 21.3956 20.2482 21.6995 20.4817 21.8473L25.8737 25.2597C26.1982 25.465 26.636 25.2213 26.5817 24.8655C26.3305 23.2346 25.6083 19.8346 23.7815 18.0497C23.5779 17.8512 23.2262 17.8718 23.0633 18.1003Z" fill="white"/>
</svg>
